<svg version="1.0" 
    xmlns="http://www.w3.org/2000/svg" viewBox="0 0 700 700" preserveAspectRatio="xMidYMid meet">
    <metadata>
Created by Richard Slater from The Noun Project.
Converted by: https://www.svgcreator.com/ .
Edited by Kim J. Nordmo.
    </metadata>
    <rect height="100%" width="100%" fill="#f05033" id="Background" />
    <g transform="translate(0,700) scale(0.1,-0.1)" fill="#000000" stroke="none">
        <path id="right-angle" d="M2302 5189 c-160 -15 -263 -59 -342 -146 -96 -104 -110 -189 -110
-646 0 -358 -8 -465 -40 -563 -25 -73 -83 -145 -142 -175 -57 -29 -160 -49
-255 -49 l-83 0 0 -116 0 -116 48 7 c68 9 207 -12 272 -41 97 -44 138 -97 171
-220 20 -72 22 -117 29 -509 8 -453 12 -491 59 -587 12 -25 44 -67 72 -93 93
-87 200 -119 436 -131 l143 -7 0 117 0 116 -85 0 c-205 0 -303 55 -345 195 -9
27 -15 175 -20 450 -6 333 -10 425 -24 490 -36 164 -100 241 -254 306 -53 22
-63 29 -47 35 125 42 219 114 260 198 50 104 57 169 65 611 6 386 8 414 29
478 41 127 108 165 304 174 l117 6 0 113 0 114 -87 -1 c-49 -1 -125 -5 -171
-10z"></path>
        <path id="left-angle" d="M4440 5088 l0 -115 113 -5 c164 -8 244 -44 288 -128 36 -69 41 -132
49 -545 6 -312 11 -426 23 -476 33 -141 95 -218 231 -285 50 -24 84 -44 76
-44 -26 0 -143 -60 -187 -96 -56 -46 -88 -102 -114 -200 -20 -72 -22 -115 -29
-494 -8 -441 -13 -489 -61 -567 -43 -69 -139 -103 -296 -105 l-93 -1 0 -115 0
-115 148 7 c288 13 421 67 496 205 52 96 57 149 66 621 6 363 10 445 24 495
33 114 83 177 176 219 65 29 204 50 272 41 l48 -7 0 116 0 116 -82 0 c-92 0
-199 20 -248 45 -47 25 -109 84 -131 127 -48 94 -52 129 -59 583 -5 273 -12
452 -20 490 -18 91 -54 158 -115 214 -90 81 -208 116 -437 127 l-138 7 0 -115z"></path>
        <path d="M2890 4911 c-80 -26 -136 -79 -165 -155 -21 -55 -16 -125 14 -184 22
-44 83 -99 119 -108 l22 -6 0 -958 0 -958 -22 -6 c-36 -9 -97 -64 -120 -109
-30 -57 -31 -156 -1 -212 45 -85 117 -129 213 -130 54 0 73 5 113 28 59 35
102 93 116 155 20 99 -26 204 -110 250 l-51 27 6 55 c8 85 51 159 114 196 72
44 141 54 406 64 292 10 349 25 446 116 55 52 97 137 113 230 10 56 14 65 41
76 86 35 140 120 140 218 0 95 -44 169 -126 211 l-38 19 0 69 c0 63 2 69 23
75 35 9 96 64 119 109 30 57 31 156 1 212 -25 47 -65 86 -110 109 -32 16 -33
18 -33 85 0 63 2 69 23 75 35 9 96 64 119 109 29 55 31 156 4 207 -47 89 -119
134 -216 135 -54 0 -73 -5 -113 -28 -47 -28 -107 -97 -107 -124 0 -10 -32 -13
-150 -15 -82 -1 -162 -2 -177 -2 -24 -1 -28 3 -31 32 -2 17 -6 32 -9 32 -15 0
-221 -124 -217 -131 4 -7 212 -129 219 -129 2 0 5 15 7 33 l3 32 171 3 172 2
31 -55 c24 -43 43 -62 86 -86 l55 -31 0 -61 0 -62 -50 -27 c-172 -96 -162
-349 18 -425 31 -13 32 -15 32 -77 l0 -63 -47 -25 c-166 -85 -169 -334 -5
-412 l43 -21 -5 -51 c-7 -85 -55 -157 -126 -194 -59 -30 -135 -40 -344 -46
-110 -3 -231 -10 -268 -15 -69 -11 -173 -54 -197 -82 -7 -10 -17 -17 -22 -17
-5 0 -9 343 -9 789 l0 789 54 31 c157 88 159 308 5 404 -49 30 -133 43 -179
28z m117 -141 c45 -27 62 -84 38 -133 -16 -35 -64 -67 -100 -67 -29 0 -74 30
-90 60 -25 49 -19 88 19 126 40 40 83 45 133 14z m1119 -11 c50 -46 39 -134
-20 -170 -38 -23 -58 -24 -103 -2 -107 50 -57 214 60 199 22 -2 50 -14 63 -27z
m1 -591 c28 -28 39 -82 24 -120 -12 -33 -65 -68 -101 -68 -71 0 -123 76 -100
146 24 72 123 96 177 42z m1 -591 c16 -16 26 -40 29 -69 4 -37 1 -49 -22 -76
-77 -91 -220 -14 -185 100 22 77 121 101 178 45z m-1134 -1161 c21 -9 39 -27
50 -51 36 -74 -18 -155 -102 -155 -46 0 -102 55 -102 99 0 46 26 90 63 106 41
18 50 18 91 1z"></path>
    </g>
</svg>