<svg xmlns="http://www.w3.org/2000/svg" id="GitTools" viewBox="0 0 100 100"><defs><style>.cls-1{fill:#682a7b}.cls-2{fill:#fff}</style></defs><title>icon</title><g id="Icon"><path d="M51.07,94.47a9.07,9.07,0,0,1-4.51-17l-.5-7.5-5.3,2.16a5.4,5.4,0,1,1-3.91-7,5.26,5.26,0,0,1,1.28.48l7.44-3-.13-2A14.14,14.14,0,0,1,38,55.94L21.63,63.75c0,.17,0,.35-.06.53a9,9,0,0,1-9,7.66,9.23,9.23,0,0,1-1.44-.11,9.09,9.09,0,0,1,1.42-18.06,9.23,9.23,0,0,1,1.44.11A9,9,0,0,1,19.51,57l15.56-7.42A13.8,13.8,0,0,1,34.83,47a14,14,0,0,1,1.79-6.87l-4.86-5.56L19,37.27a5.39,5.39,0,1,1-2.89-7.59,5.19,5.19,0,0,1,1.38.77l9-1.87L25.14,27a9,9,0,0,1-3.1.56c-.25,0-.5,0-.75,0A9.09,9.09,0,0,1,22,9.43q.39,0,.78,0a9.1,9.1,0,0,1,8.29,9.82,8.79,8.79,0,0,1-.82,3l5,5.77L36.85,24a5.37,5.37,0,0,1,4.68-8,5.45,5.45,0,0,1,1,.1,5.39,5.39,0,0,1,.87,10.35l-2.85,7.71.9,1A14,14,0,0,1,53.92,33.9l7.92-13.67a9.05,9.05,0,1,1,6.1,3.43l-2.76,4.76,5,1.61a5.38,5.38,0,0,1,8.19,5.33A5.42,5.42,0,0,1,73.07,40a5.49,5.49,0,0,1-.77-.06,5.36,5.36,0,0,1-4.19-3.23l-6.51-2.08-1.93,3.34A14,14,0,0,1,63,47v.06l17.37,4.43a9,9,0,0,1,7.05-3.39,9.09,9.09,0,1,1-9,10.1L70,56.12,70.41,61a5.38,5.38,0,1,1-7,.45l-.53-7.13-1.68-.43a14,14,0,0,1-8.77,6.79l1.06,16a9.09,9.09,0,0,1-2.44,17.84Z" class="cls-1"/><path d="M69,7a7.59,7.59,0,1,1-1.07,15.1c-.24,0-.46-.12-.7-.17l-4.24,7.31,7.54,2.41a3.89,3.89,0,0,1,2.58-1,3.83,3.83,0,0,1,.55,0,3.89,3.89,0,1,1-4.34,4.77L60.9,32.81,57.8,38.15A12.54,12.54,0,0,1,61.49,47c0,.41,0,.81-.06,1.21l19.56,5a7.56,7.56,0,1,1-1.16,4c0-.06,0-.11,0-.16L68.4,54.15,69,61.84a3.88,3.88,0,1,1-4,.24l-.67-9-3.9-1a12.58,12.58,0,0,1-9.55,7.34L52.09,77.9c.22,0,.44,0,.67.08a7.63,7.63,0,1,1-4.64.42l-.7-10.57-8,3.24c0,.09,0,.18,0,.27a3.91,3.91,0,1,1-1.45-4l9.16-3.73-.28-4.19a12.57,12.57,0,0,1-8.4-5.39L20.15,62.79A7.64,7.64,0,1,1,19,58.9l17.78-8.48A12.49,12.49,0,0,1,38.47,40l-6.16-7-14.4,3s0,.08,0,.12a3.9,3.9,0,1,1-2.3-5,3.85,3.85,0,0,1,1.46,1L29.3,29.52l-3.75-4.29a7.57,7.57,0,0,1-3.5.87l-.63,0A7.59,7.59,0,0,1,22,10.93l.65,0a7.59,7.59,0,0,1,6.92,8.2,7.5,7.5,0,0,1-1.14,3.35L35.86,31l2.67-7.21a3.88,3.88,0,0,1,3-6.34,3.89,3.89,0,0,1,.75,7.71l-3.43,9.26,2.38,2.72a12.5,12.5,0,0,1,13.32-1.29L63.68,20A7.57,7.57,0,0,1,69,7m0-3h0a10.56,10.56,0,0,0-8.9,16.27L53.24,32.08a15.55,15.55,0,0,0-10.6.7l2-5.3a6.89,6.89,0,0,0-1.78-12.94A6.89,6.89,0,0,0,34.76,20a6.82,6.82,0,0,0,.46,4l-.42,1.14L32,22a10.16,10.16,0,0,0,.57-2.61A10.6,10.6,0,0,0,22.95,8c-.3,0-.6,0-.9,0a10.65,10.65,0,0,0-10.54,9.69,10.6,10.6,0,0,0,7.37,11l-1.07.22a6.66,6.66,0,0,0-1.18-.58,6.89,6.89,0,1,0,3.31,10.34l11.28-2.34,3.61,4.13A15.52,15.52,0,0,0,33.33,47a15.09,15.09,0,0,0,.09,1.66L19.85,55.18a10.48,10.48,0,0,0-5.6-2.79,10.68,10.68,0,0,0-1.67-.13,10.59,10.59,0,0,0-1.65,21,10.68,10.68,0,0,0,1.67.13A10.53,10.53,0,0,0,23,64.75l14.62-7a15.67,15.67,0,0,0,6.18,4L38.16,64a6.79,6.79,0,0,0-1-.3,6.89,6.89,0,0,0-8.26,5.17,6.89,6.89,0,0,0,13,4.39l2.78-1.13.3,4.54a10.56,10.56,0,1,0,9.94-1.19L54,61.75a15.46,15.46,0,0,0,7.51-5.58l.35,4.72a6.9,6.9,0,1,0,10-.66l-.16-2.15,5.36,1.37A10.59,10.59,0,1,0,87.41,46.64a10.48,10.48,0,0,0-7.57,3.21l-15.4-3.92a15.43,15.43,0,0,0-3-8.11l.82-1.41L67,37.92a6.85,6.85,0,0,0,5,3.48,6.89,6.89,0,0,0,2-13.65,6.81,6.81,0,0,0-4,.64l-2.64-.84,1.36-2.34H69a10.64,10.64,0,0,0,10.47-9.07,10.59,10.59,0,0,0-9-12A10.69,10.69,0,0,0,69,4Z" class="cls-2"/></g></svg>