<svg xmlns="http://www.w3.org/2000/svg" xmlns:xlink="http://www.w3.org/1999/xlink" width="100" height="100" x="0" y="0" fill="#000" enable-background="new 0 0 100 100" version="1.1" viewBox="0 0 100 100" xml:space="preserve"><path fill="#000" d="M87.413,49.639c-2.72,0-5.087,1.444-6.426,3.595l-19.56-4.984c0.038-0.397,0.061-0.799,0.061-1.206 c0-3.473-1.408-6.618-3.684-8.894l3.092-5.34l8.388,2.682c0.363,1.502,1.6,2.707,3.222,2.941c2.128,0.307,4.102-1.169,4.41-3.297 c0.307-2.128-1.169-4.102-3.297-4.41c-1.182-0.171-2.305,0.222-3.133,0.958l-7.543-2.412l4.236-7.314 c0.234,0.057,0.456,0.139,0.699,0.174c4.147,0.599,7.994-2.277,8.593-6.424c0.599-4.147-2.277-7.994-6.425-8.593 c-4.147-0.599-7.994,2.277-8.593,6.424c-0.36,2.493,0.552,4.862,2.224,6.498L54.544,35.81c-1.697-0.853-3.606-1.344-5.634-1.344 c-2.898,0-5.559,0.99-7.686,2.637l-2.376-2.719l3.426-9.256c1.516-0.295,2.776-1.477,3.083-3.087 c0.403-2.112-0.983-4.151-3.095-4.553c-2.112-0.403-4.151,0.983-4.553,3.095c-0.224,1.173,0.118,2.313,0.816,3.173l-2.667,7.207 l-7.388-8.453c0.616-0.987,1.04-2.112,1.145-3.351c0.354-4.175-2.744-7.846-6.919-8.2c-4.175-0.354-7.846,2.744-8.2,6.919 c-0.354,4.175,2.744,7.846,6.919,8.2c1.487,0.126,2.901-0.202,4.133-0.844l3.748,4.288l-12.251,2.543 c-0.398-0.42-0.884-0.768-1.464-0.982c-2.017-0.745-4.256,0.285-5.001,2.302c-0.745,2.017,0.285,4.256,2.302,5.001 c2.017,0.745,4.256-0.285,5.001-2.302c0.015-0.04,0.018-0.081,0.031-0.122l14.399-2.989l6.162,7.05 c-1.352,2.005-2.141,4.421-2.141,7.021c0,1.171,0.172,2.3,0.472,3.375l-17.778,8.48c-1.119-1.823-2.97-3.181-5.247-3.543 c-4.138-0.658-8.026,2.163-8.684,6.301s2.163,8.026,6.301,8.684c4.138,0.658,8.026-2.163,8.684-6.301 c0.067-0.423,0.075-0.839,0.072-1.253l18.313-8.735c1.895,2.82,4.905,4.816,8.396,5.389l0.278,4.19l-9.156,3.731 c-0.425-0.322-0.918-0.566-1.471-0.693c-2.095-0.482-4.185,0.826-4.666,2.922c-0.482,2.095,0.826,4.185,2.922,4.666 c2.095,0.482,4.185-0.826,4.666-2.922c0.02-0.089,0.019-0.177,0.034-0.266l7.951-3.24l0.702,10.573 c-2.168,0.915-3.889,2.806-4.457,5.275c-0.939,4.083,1.61,8.155,5.694,9.094c4.083,0.939,8.155-1.61,9.094-5.694 c0.939-4.083-1.61-8.155-5.694-9.094c-0.224-0.051-0.445-0.054-0.668-0.084l-1.225-18.443c4.287-0.67,7.855-3.495,9.553-7.342 l3.898,0.993l0.669,8.978c-1.016,0.702-1.685,1.873-1.685,3.202c0,2.15,1.743,3.893,3.893,3.893c2.15,0,3.893-1.743,3.893-3.893 c0-1.506-0.865-2.798-2.116-3.445l-0.574-7.695l11.447,2.917c-0.001,0.056-0.016,0.107-0.016,0.163c0,4.19,3.397,7.587,7.587,7.587 c4.19,0,7.587-3.397,7.587-7.587C95,53.036,91.603,49.639,87.413,49.639z"/></svg>